<mxfile host="app.diagrams.net" modified="2024-06-21T13:03:56.071Z" agent="Mozilla/5.0 (Macintosh; Intel Mac OS X 10_15_7) AppleWebKit/537.36 (KHTML, like Gecko) Chrome/126.0.0.0 Safari/537.36" version="24.6.0" etag="Lnyi8v7GS3CZNV5Be6-D" type="github">
  <diagram name="Page-1" id="mF4p95jvKNZpchS2YXp3">
    <mxGraphModel>
      <root>
        <mxCell id="0" />
        <mxCell id="1" parent="0" />
      </root>
    </mxGraphModel>
  </diagram>
</mxfile>
